<?xml version="1.0" encoding="utf-8"?>
<svg fill="#ffffff" version="1.1" id="Layer_1" xmlns="http://www.w3.org/2000/svg" xmlns:xlink="http://www.w3.org/1999/xlink" 
     width="800px" height="800px" viewBox="0 0 248 256" enable-background="new 0 0 248 256" xml:space="preserve">
    <!-- Add a black background rectangle -->
    <rect width="248" height="256" style="fill:black;" />
    <path d="M193.204,65.068V8.693h-39.611v20.011L124.366,2L1.96,111.562l24.236,27.308l13.122-11.844V254h169.123V128.137
            l12.713,11.664l24.887-26.64L193.204,65.068z M220.607,125.606l-22.256-20.422v18.569h-8.832v23.563h8.832v9.393h-28.15v23.563
            h28.15v9.447h-8.832v23.563h8.832v9.499h-28.15v21.13h-4.723v-21.13h-33.752v21.13H49.408V104.322l-22.42,20.24L16.176,112.38
            l108.12-96.776l39.387,35.987V18.783h19.431v50.745l48.576,44.215L220.607,125.606z M150.989,189.718h33.752v23.563h-33.752V189.718
            z M165.478,180.271h-33.752v-23.563h33.752V180.271z M150.989,123.752h33.752v23.563h-33.752V123.752z"/>
</svg>